<?xml version="1.0" encoding="UTF-8" standalone="no"?>
<!-- Created with Inkscape (http://www.inkscape.org/) -->

<svg
   width="213.13557mm"
   height="59.760719mm"
   viewBox="0 0 213.13557 59.760719"
   version="1.1"
   id="svg1"
   xml:space="preserve"
   xmlns:inkscape="http://www.inkscape.org/namespaces/inkscape"
   xmlns:sodipodi="http://sodipodi.sourceforge.net/DTD/sodipodi-0.dtd"
   xmlns="http://www.w3.org/2000/svg"
   xmlns:svg="http://www.w3.org/2000/svg"><sodipodi:namedview
     id="namedview1"
     pagecolor="#ffffff"
     bordercolor="#000000"
     borderopacity="0.25"
     inkscape:showpageshadow="2"
     inkscape:pageopacity="0.0"
     inkscape:pagecheckerboard="0"
     inkscape:deskcolor="#d1d1d1"
     inkscape:document-units="mm" /><defs
     id="defs1" /><g
     inkscape:label="Layer 1"
     inkscape:groupmode="layer"
     id="layer1"
     transform="translate(15.518632,-45.480357)"><g
       id="g1"
       transform="translate(-10.396885,-63.234865)"
       style="display:inline"
       inkscape:export-filename=".\logo.png"
       inkscape:export-xdpi="217.636"
       inkscape:export-ydpi="217.636"><path
         style="fill:#695ef4"
         d="m 12.10169,167.86252 c -0.3611,-0.55111 -0.331378,-0.85804 0.326672,-3.37344 l 0.723916,-2.76716 2.5115,-1.23794 c 1.381324,-0.68086 2.616384,-1.28137 2.744576,-1.33446 0.212485,-0.088 -0.811739,-16.60427 -1.0446,-16.84486 -0.05466,-0.0565 -1.025517,0.26419 -2.157468,0.71258 -7.0208729,2.78109 -12.5712373,4.94029 -13.8309304,5.38049 l -1.45408823,0.50814 -2.21681937,-2.32323 c -2.6623098,-2.7901 -2.9701366,-3.2275 -2.7808308,-3.95141 0.084397,-0.32273 1.2563544,-1.3242 2.7796904,-2.37532 1.44857525,-0.99953 3.8149991,-2.65076 5.2587197,-3.66941 1.4437205,-1.01864 5.0017367,-3.50716 7.9067027,-5.53003 l 5.281756,-3.67794 0.299873,-1.722 c 0.16493,-0.9471 0.645732,-4.20048 1.068449,-7.22974 0.930586,-6.66873 1.396198,-7.77638 3.783419,-9.00044 2.168451,-1.11188 4.437917,-0.9158 6.474341,0.55938 1.694292,1.22734 2.050464,2.32496 3.094092,9.53515 0.516049,3.56526 1.001765,6.79248 1.07937,7.17161 0.113524,0.5546 2.206987,2.12348 10.71182,8.02761 9.680207,6.72009 10.570719,7.40109 10.570719,8.08374 0,0.54981 -0.56704,1.41045 -2.160709,3.27947 -1.18839,1.39372 -2.368201,2.59989 -2.621801,2.68038 -0.253601,0.0805 -1.573235,-0.28768 -2.932521,-0.81815 -1.359285,-0.53047 -4.078771,-1.59683 -6.043303,-2.36969 -7.148736,-2.81238 -8.528907,-3.32676 -8.636784,-3.21888 -0.133049,0.13305 -1.146112,13.83638 -1.150026,15.55599 l -0.0028,1.21812 2.528545,1.14241 c 1.390699,0.62832 2.627076,1.33033 2.747504,1.56 0.120428,0.22968 0.48631,1.58178 0.81307,3.00467 0.911338,3.96845 2.010459,3.63063 -11.812568,3.63063 H 12.498934 Z m 20.899111,-3.03175 c -0.10028,-0.5457 -0.275884,-1.08905 -0.390232,-1.20745 -0.114347,-0.11839 -1.325473,-0.74046 -2.69139,-1.38236 -1.365917,-0.6419 -2.619083,-1.37846 -2.784814,-1.63681 -0.226296,-0.35277 -0.213133,-1.75446 0.05286,-5.62911 0.194806,-2.83765 0.503437,-7.416 0.685848,-10.1741 0.283608,-4.28823 0.404068,-5.08714 0.831495,-5.51456 0.55587,-0.55587 0.531724,-0.56005 3.493624,0.60436 1.164166,0.45766 2.711979,1.0528 3.439583,1.32253 0.727604,0.26972 3.62343,1.39287 6.435169,2.49588 2.811738,1.10301 5.267942,2.00548 5.458231,2.00548 0.356731,0 2.261808,-2.16063 2.261808,-2.56521 0,-0.12495 -1.373868,-1.17648 -3.05304,-2.33672 -4.624989,-3.19569 -11.032509,-7.63911 -14.202587,-9.84907 -1.559709,-1.08732 -2.904358,-2.19285 -2.988108,-2.45672 -0.08375,-0.26387 -0.609592,-3.68272 -1.168537,-7.59743 -0.5977,-4.18614 -1.19414,-7.46164 -1.448142,-7.95282 -1.090785,-2.10935 -4.605166,-2.12334 -5.729337,-0.0228 -0.172209,0.32177 -0.648197,2.91775 -1.057751,5.76884 -1.0729,7.46894 -1.313435,9.08343 -1.447221,9.71385 -0.06888,0.32459 -0.873733,1.07228 -1.908551,1.77301 -0.984189,0.66644 -4.13713,2.85463 -7.0065373,4.86266 -2.8694069,2.00802 -6.6485366,4.64293 -8.3980661,5.85535 l -3.1809626,2.2044 1.09729554,1.30133 c 0.60351255,0.71573 1.25612991,1.30133 1.4502608,1.30133 0.37143116,0 2.71866456,-0.88485 13.93315966,-5.25247 3.317359,-1.29199 4.288144,-1.57239 4.69323,-1.35559 0.653336,0.34965 0.705929,0.62924 1.043947,5.54972 0.154949,2.25558 0.456235,6.6403 0.669525,9.74383 0.264471,3.84824 0.303106,5.80104 0.121486,6.1404 -0.146473,0.27368 -1.306611,0.97737 -2.578085,1.56375 -3.144309,1.45008 -3.057214,1.38326 -3.415432,2.62051 l -0.317952,1.09818 h 9.140773 9.140774 z m 42.192184,-2.38544 c 0,-0.11144 3.985733,-5.55855 8.857184,-12.10469 4.871451,-6.54613 8.804379,-12.05055 8.73984,-12.23204 -0.06454,-0.18149 -4.050272,-5.62373 -8.857184,-12.09387 -4.806912,-6.47014 -8.73984,-11.82828 -8.73984,-11.90699 0,-0.0787 0.922735,-0.13952 2.050521,-0.13514 l 2.050521,0.008 8.73125,11.76558 c 4.802188,6.47107 8.840941,11.93047 8.975009,12.13199 0.178932,0.26896 -2.166665,3.61141 -8.819788,12.56811 l -9.063546,12.2017 h -1.961983 c -1.079091,0 -1.961984,-0.0912 -1.961984,-0.20263 z m 121.708335,-46.8932 v -1.5875 h 1.71979 1.71979 v 1.5875 1.5875 h -1.71979 -1.71979 z"
         id="path2" /><path
         style="fill:#d73e4f"
         d="m 169.47995,162.80385 c -4.19792,-0.80042 -6.94343,-2.17521 -9.4988,-4.75645 -3.03092,-3.0616 -4.65168,-6.81554 -5.13132,-11.88493 -0.28477,-3.00979 -0.0191,-6.86775 0.65506,-9.51248 1.23512,-4.84542 4.27523,-8.74835 8.38234,-10.76132 3.52284,-1.72661 4.93702,-2.00238 10.25992,-2.00074 5.05868,0.002 6.80531,0.30369 9.96142,1.72308 6.82624,3.06993 10.44119,10.64705 9.62276,20.16976 -0.48069,5.59297 -1.93444,9.04718 -5.15012,12.23698 -2.39929,2.37998 -4.39324,3.5118 -7.7515,4.39996 -2.65947,0.70334 -8.62217,0.90621 -11.34976,0.38614 z m 10.83848,-3.84135 c 4.9222,-1.27514 7.69679,-3.93361 9.24619,-8.85925 0.52349,-1.66419 0.58859,-2.4256 0.57885,-6.76987 -0.0103,-4.59313 -0.0547,-5.02525 -0.72123,-7.01146 -2.18087,-6.49922 -7.40665,-9.4177 -16.20113,-9.048 -5.27018,0.22155 -8.13659,1.19208 -10.8529,3.67463 -2.79522,2.55468 -4.0975,6.55359 -4.0942,12.57211 0.005,9.53257 3.87539,14.65461 12.04483,15.94094 2.42006,0.38105 7.60013,0.1225 9.99959,-0.4991 z m -70.27324,2.16411 c -0.63914,-0.83675 -3.22175,-4.31933 -5.73914,-7.73907 -2.51739,-3.41974 -4.677782,-6.3459 -4.800871,-6.50258 -0.226143,-0.28787 1.582261,-3.06137 1.922091,-2.94785 0.23496,0.0785 13.7032,18.26268 13.71134,18.51241 0.004,0.10914 -0.87955,0.19844 -1.96245,0.19844 h -1.96891 z m 9.06863,-22.80769 v -24.35429 h 17.33021 17.33021 v 1.5875 1.5875 H 138.16382 122.5534 v 9.78958 9.78958 h 15.62362 15.62362 l -0.0793,1.52136 -0.0794,1.52135 -15.54143,0.0683 -15.54143,0.0683 -0.069,11.30882 -0.069,11.30883 -1.65365,0.0788 -1.65364,0.0788 z m 77.7875,5.01446 v -19.05 h 1.71979 1.71979 v 19.05 19.05 h -1.71979 -1.71979 z m 7.67292,-5.15938 v -24.20937 h 1.71979 1.71979 v 24.20937 24.20938 h -1.71979 -1.71979 z m -104.31864,-7.00054 -0.983349,-1.31717 5.885889,-7.94386 5.88589,-7.94387 2.06613,-0.002 c 1.58426,-0.001 2.01919,0.0752 1.86483,0.32877 -0.52461,0.86191 -13.38349,18.06638 -13.54805,18.12654 -0.10339,0.0378 -0.63049,-0.524 -1.17134,-1.24844 z"
         id="path1" /></g></g></svg>
